<svg width="51" height="51" viewBox="0 0 51 51" fill="none" xmlns="http://www.w3.org/2000/svg">
<path d="M39.9314 23.3856H16.1952L26.5652 13.0156C27.3939 12.1869 27.3939 10.8269 26.5652 9.99812C26.1681 9.60021 25.6291 9.37659 25.067 9.37659C24.5049 9.37659 23.9659 9.60021 23.5689 9.99812L9.56517 24.0019C8.73642 24.8306 8.73642 26.1694 9.56517 26.9981L23.5689 41.0019C24.3977 41.8306 25.7364 41.8306 26.5652 41.0019C27.3939 40.1731 27.3939 38.8344 26.5652 38.0056L16.1952 27.6356H39.9314C41.1002 27.6356 42.0564 26.6794 42.0564 25.5106C42.0564 24.3419 41.1002 23.3856 39.9314 23.3856Z" fill="#181F38"/>
</svg>
