<svg width="39" height="40" viewBox="0 0 39 40" fill="none" xmlns="http://www.w3.org/2000/svg">
<path fill-rule="evenodd" clip-rule="evenodd" d="M18.2185 18.6865L16.5171 24.2649L21.9544 22.5182L23.6574 16.9399L18.2185 18.6865ZM14.6581 27.4198C14.3396 27.4198 14.0276 27.2915 13.7953 27.0548C13.4751 26.7248 13.3581 26.2398 13.4946 25.7982L16.0833 17.3165C16.2019 16.9232 16.5009 16.6182 16.8811 16.4965L25.1508 13.8415C25.5846 13.6998 26.0559 13.8215 26.3776 14.1498C26.6978 14.4798 26.8148 14.9648 26.6783 15.4065L24.0913 23.8882C23.9726 24.2798 23.672 24.5865 23.2918 24.7082L15.0221 27.3632C14.9019 27.4015 14.7784 27.4198 14.6581 27.4198V27.4198Z" fill="#130F26"/>
<mask id="mask0" mask-type="alpha" maskUnits="userSpaceOnUse" x="3" y="3" width="34" height="35">
<path fill-rule="evenodd" clip-rule="evenodd" d="M3.25 3.33334H36.9229V37.8695H3.25V3.33334Z" fill="white"/>
</mask>
<g mask="url(#mask0)">
<path fill-rule="evenodd" clip-rule="evenodd" d="M20.0863 5.83334C12.1466 5.83334 5.68718 12.46 5.68718 20.6017C5.68718 28.745 12.1466 35.37 20.0863 35.37C28.0261 35.37 34.4854 28.745 34.4854 20.6017C34.4854 12.46 28.0261 5.83334 20.0863 5.83334M20.0863 37.87C10.8027 37.87 3.24968 30.1233 3.24968 20.6017C3.24968 11.08 10.8027 3.33334 20.0863 3.33334C29.3699 3.33334 36.9229 11.08 36.9229 20.6017C36.9229 30.1233 29.3699 37.87 20.0863 37.87" fill="#130F26"/>
</g>
</svg>
