<svg width="18" height="18" viewBox="0 0 18 18" fill="none" xmlns="http://www.w3.org/2000/svg">
<g clip-path="url(#clip0)">
<path d="M17.9934 5.87691C17.9336 4.60819 17.4227 3.40521 16.555 2.4895C15.6562 1.54095 14.472 1.01318 13.2206 1.00337C12.0249 0.994337 10.9724 1.43052 10.0919 2.30081C9.5907 2.7962 9.2236 3.35937 8.96492 3.85135C8.70624 3.35937 8.33914 2.7962 7.83792 2.30081C6.95736 1.43056 5.90418 0.994478 4.70926 1.00337C3.45963 1.01315 2.28639 1.54253 1.40573 2.494C0.563527 3.40384 0.0666632 4.60524 0.00668667 5.87691C-0.150251 9.20392 2.46889 11.4358 6.43346 14.8142C7.1304 15.4081 7.8511 16.0222 8.61768 16.693L8.96492 16.9968L9.31216 16.693C10.125 15.9818 10.8876 15.3345 11.6251 14.7086C15.5535 11.3744 18.1488 9.17172 17.9934 5.87691ZM15.4624 9.68469C14.4087 10.9627 12.8791 12.2609 10.9426 13.9045C10.3078 14.4433 9.65441 14.9978 8.96496 15.5965C8.32195 15.0378 7.71114 14.5173 7.1175 14.0114C5.15683 12.3407 3.60823 11.021 2.54648 9.72818C1.45713 8.40169 0.998761 7.2293 1.06021 5.92662C1.16182 3.77256 2.76828 2.07332 4.71748 2.05806C4.72701 2.05799 4.73622 2.05796 4.74571 2.05796C6.78355 2.05796 7.82276 3.79165 8.26151 4.82834C8.38189 5.11275 8.65801 5.29655 8.96489 5.29655C9.27176 5.29655 9.54788 5.11275 9.66826 4.82834C10.107 3.79158 11.146 2.05799 13.184 2.05799C13.1934 2.05799 13.2028 2.05803 13.2123 2.0581C15.1678 2.07339 16.84 3.80884 16.9398 5.92666C17.0005 7.2126 16.5449 8.3716 15.4624 9.68469Z" fill="#ED5A5F"/>
</g>
<defs>
<clipPath id="clip0">
<rect width="18" height="18" fill="white"/>
</clipPath>
</defs>
</svg>
