<?xml version="1.0"?>
<svg xmlns="http://www.w3.org/2000/svg" id="Layer_1_copy" data-name="Layer 1 copy" viewBox="0 0 64 64" width="512" height="512"><path d="M50.5,31c-.24,0-.48,0-.72,0L48,19.92V13h1a1,1,0,0,0,0-2H44a1,1,0,0,0,0,2h2v6.19L35.8,21.31a1,1,0,1,0,.41,2l8.53-1.78L32.48,39A3.93,3.93,0,0,0,32,39a4,4,0,0,0-1.59.33L24.93,25.62,32.2,24.1a1,1,0,0,0-.41-2l-7.63,1.59L21.48,17H24a1,1,0,0,0,0-2H16a1,1,0,0,0,0,2h3.32l2.94,7.36a1,1,0,0,0-.15.18l-3.87,7.34a13.41,13.41,0,0,0-10.69.49,1,1,0,0,0,.88,1.8,11.43,11.43,0,0,1,8.87-.51l-5.2,9.87A1,1,0,0,0,13,45H25A11.49,11.49,0,1,1,4.86,36.91a1,1,0,0,0-1.5-1.32A13.49,13.49,0,1,0,27,45h1.58a4,4,0,1,0,5.83-5.19l12-17.21,1.39,8.67A13.5,13.5,0,1,0,50.5,31ZM19.14,34.49A11.51,11.51,0,0,1,24.89,43H14.66ZM26.91,43a13.52,13.52,0,0,0-6.84-10.28l3.15-6,5.56,13.91A4,4,0,0,0,28,43ZM32,45a2,2,0,1,1,2-2A2,2,0,0,1,32,45ZM50.5,56a11.5,11.5,0,0,1-2.39-22.75L50,45.16A1,1,0,0,0,51,46h.16A1,1,0,0,0,52,44.84L50.1,33l.4,0a11.5,11.5,0,0,1,0,23Z"/></svg>
